<svg width="15" height="15" viewBox="0 0 15 15" fill="none" xmlns="http://www.w3.org/2000/svg">
<path fill-rule="evenodd" clip-rule="evenodd" d="M0.351344 0.366346C0.576377 0.141381 0.881547 0.0150022 1.19974 0.0150022C1.51794 0.0150022 1.82311 0.141381 2.04814 0.366346L7.19974 5.51795L12.3513 0.366346C12.462 0.251734 12.5945 0.160315 12.7409 0.0974242C12.8873 0.0345334 13.0447 0.00142989 13.2041 4.53085e-05C13.3634 -0.00133927 13.5214 0.0290225 13.6689 0.0893596C13.8164 0.149697 13.9503 0.2388 14.063 0.351472C14.1757 0.464143 14.2648 0.598125 14.3251 0.745601C14.3855 0.893077 14.4158 1.05109 14.4144 1.21043C14.4131 1.36976 14.38 1.52723 14.3171 1.67363C14.2542 1.82004 14.1628 1.95245 14.0481 2.06315L8.89654 7.21475L14.0481 12.3663C14.2667 12.5927 14.3877 12.8958 14.385 13.2104C14.3822 13.5251 14.256 13.826 14.0335 14.0485C13.811 14.271 13.5101 14.3972 13.1954 14.4C12.8808 14.4027 12.5777 14.2817 12.3513 14.0631L7.19974 8.91155L2.04814 14.0631C1.82182 14.2817 1.5187 14.4027 1.20406 14.4C0.889426 14.3972 0.588451 14.271 0.365961 14.0485C0.143472 13.826 0.0172687 13.5251 0.0145346 13.2104C0.0118005 12.8958 0.132754 12.5927 0.351344 12.3663L5.50294 7.21475L0.351344 2.06315C0.126379 1.83811 0 1.53294 0 1.21475C0 0.896549 0.126379 0.591379 0.351344 0.366346Z" fill="#1B1D1F"/>
</svg>
