<?xml version="1.0" encoding="utf-8"?>
<!-- Generator: Adobe Illustrator 26.0.2, SVG Export Plug-In . SVG Version: 6.00 Build 0)  -->
<svg version="1.1" id="Слой_1" xmlns="http://www.w3.org/2000/svg" xmlns:xlink="http://www.w3.org/1999/xlink" x="0px" y="0px"
	 viewBox="0 0 283.5 292.2" style="enable-background:new 0 0 283.5 292.2;" xml:space="preserve">
<style type="text/css">
	.st0{fill-rule:evenodd;clip-rule:evenodd;fill:url(#SVGID_1_);}
	.st1{fill:none;stroke:#FF6B0A;stroke-width:3;stroke-linecap:round;stroke-miterlimit:4;}
	.st2{fill:none;stroke:#FF6B0A;stroke-width:3;stroke-linecap:round;}
	.st3{fill:url(#SVGID_00000093177331134843582550000015926884557208277140_);}
	.st4{fill:url(#SVGID_00000140709532972496818090000004072728680459364261_);}
	.st5{fill:url(#SVGID_00000049917813796551594230000018389619446325944462_);}
	.st6{fill:#D9D9D9;}
	.st7{fill:#FAFAFA;}
	.st8{fill:#FFFFFF;}
	.st9{fill:#DF5B04;}
	.st10{fill:#FF6B0A;}
	.st11{fill:#797979;}
	.st12{fill:#0C0632;}
	.st13{fill:#494600;}
	.st14{fill:#FFD500;}
	.st15{fill:url(#SVGID_00000038400097139397385130000010219670535078002873_);}
	.st16{fill:#C4C4C4;}
	.st17{fill:#F8F8F8;}
</style>
<linearGradient id="SVGID_1_" gradientUnits="userSpaceOnUse" x1="30.4645" y1="220.0182" x2="252.9997" y2="91.5384" gradientTransform="matrix(1 0 0 -1 0 292.1102)">
	<stop  offset="0" style="stop-color:#A5DEFF"/>
	<stop  offset="1" style="stop-color:#BDE7FF"/>
</linearGradient>
<path class="st0" d="M32.1,69.7C48.6,36,79.2,20.9,116.6,17.1c36.2-3.7,77.7,15.8,103.6,41.3c24.5,24.1,51.4,49.1,51.3,83.5
	c-0.2,36.9-21.3,71.1-52,91.4c-30.3,20.1-68.7,23.3-102.9,11.2c-32.5-11.5-64-24.7-76.3-56.9C28.1,155.7,17.1,100.4,32.1,69.7z"/>
<line class="st1" x1="148.4" y1="234.8" x2="147.5" y2="264.8"/>
<path class="st2" d="M133.2,273.1l16.1-8.8"/>
<path class="st2" d="M143,274.7l6.9-9.9"/>
<path class="st2" d="M128.9,266.2l18.7-2.1"/>
<linearGradient id="SVGID_00000158023850015235719850000012714060403345413775_" gradientUnits="userSpaceOnUse" x1="129.4368" y1="81.9774" x2="245.6608" y2="99.5334" gradientTransform="matrix(1 0 0 -1 0 292.1102)">
	<stop  offset="0" style="stop-color:#F2F2F2"/>
	<stop  offset="1" style="stop-color:#FFFFFF"/>
</linearGradient>
<path style="fill:url(#SVGID_00000158023850015235719850000012714060403345413775_);" d="M96.2,201.8c10.9,41.3,55.2,97,144.9-10.4
	C188.2,168,85.2,137.2,96.2,201.8z"/>
<linearGradient id="SVGID_00000130638402791529374890000002409619332400340638_" gradientUnits="userSpaceOnUse" x1="114.5462" y1="210.9633" x2="114.5462" y2="77.8843" gradientTransform="matrix(1 0 0 -1 0 292.1102)">
	<stop  offset="0" style="stop-color:#FFFFFF"/>
	<stop  offset="1" style="stop-color:#F2F2F2"/>
</linearGradient>
<path style="fill:url(#SVGID_00000130638402791529374890000002409619332400340638_);" d="M136.1,110.3c8.3-20-3.5-27.7-10.4-29.1
	c-5.2,3.5-23.7,10.4-14.6,10.4c9.1,0,6.6,12.5,4.2,18.7c-44.9,60.7-18.7,94.6-5.2,104c15.6-6.2,41.6-20.6,20.8-28.1
	C104.9,176.8,125.7,135.2,136.1,110.3z"/>
<radialGradient id="SVGID_00000013156546989172345650000016137936417076918680_" cx="-152.4325" cy="588.112" r="1" gradientTransform="matrix(29.2075 0.2639 -9.121076e-02 10.0945 4656.6572 -5653.9854)" gradientUnits="userSpaceOnUse">
	<stop  offset="0" style="stop-color:#D7D7D7"/>
	<stop  offset="1" style="stop-color:#D7D7D7;stop-opacity:0"/>
</radialGradient>
<path style="fill:url(#SVGID_00000013156546989172345650000016137936417076918680_);" d="M121.6,242.2c-0.1,5.6,13,10.2,29.1,10.4
	s29.2-4.3,29.3-9.8c0.1-5.6-13-10.2-29.1-10.4S121.7,236.6,121.6,242.2z"/>
<path class="st2" d="M165.3,244.7v24.4"/>
<path class="st2" d="M148.7,278l16.1-8.8"/>
<path class="st2" d="M158.5,279.6l6.9-9.9"/>
<path class="st2" d="M144.4,271.1l18.7-2.1"/>
<path class="st6" d="M165.8,133.2c-63.8,20.6-50.6,41.4-36,49.3c4.2,6.8,17.4-2.3,23.5-7.8c0.1-3.3,2.2-11,9.8-15.8
	c7.5-4.8,5.4-6.8,3.3-7.2c10.6-8.9,4.8-8.3,0.5-6.9C200.8,126.6,177.7,129.1,165.8,133.2z"/>
<path class="st7" d="M168.2,134.4c-64.6,22-50.7,42.7-35.7,50.2c4.4,6.8,17.7-2.7,23.8-8.3c0-3.3,2-11.1,9.6-16.1
	c7.6-4.9,5.3-6.9,3.3-7.3c10.6-9.1,4.7-8.4,0.4-6.9C197.3,126.2,180.2,130,168.2,134.4z"/>
<path class="st8" d="M100,106.5c19.5,10.8,28.6,4.5,30.7,0c14.3-8.5,11-37.4-13.5-37.4S75.6,93.1,100,106.5z"/>
<path class="st9" d="M113.4,98.6l-3.1-2c-5.6-3.6-12.3-5-18.9-3.8c-0.4,0.1-0.7,0.3-0.8,0.7L84.3,119c-0.5,1.8,1.7,3.2,3.2,2.1
	l26-20.4C114.2,100.2,114.1,99.1,113.4,98.6z"/>
<path class="st10" d="M113.9,98.5l-2.6-1.6c-6-3.7-13.2-5.2-20.2-4.1c-0.3,0-0.5,0.2-0.7,0.4l-15.7,21.6c-1.2,1.7,0.6,3.9,2.5,3
	l36.5-17C114.7,100.4,114.8,99,113.9,98.5z"/>
<circle class="st11" cx="91.4" cy="86.2" r="2.5"/>
<circle class="st11" cx="117.2" cy="88.7" r="2.5"/>
<path class="st12" d="M99,54.9l0.6-3l35.9,6.8l-3.1,16.3l-1.3-0.2l-29.9-3.8l-4.7-2.8l2.1-11.3l-0.2,0l0-2L99,54.9z"/>
<ellipse transform="matrix(0.1863 -0.9825 0.9825 0.1863 37.8125 162.3566)" class="st12" cx="116.9" cy="58.3" rx="1.9" ry="18.8"/>
<path class="st12" d="M96.1,68.1c-12.2,0.7-23.8,16.5,27.1,8.2L96.1,68.1z"/>
<path class="st13" d="M96,68c1.9,5.7,32.7,11.2,36.9,7l2.4-13.1c-5.4,0.7-15.1-4.2-23.5-2.7l-10.7,9.5l-2.7-13.8L96,68z"/>
<ellipse transform="matrix(0.1863 -0.9825 0.9825 0.1863 41.0692 160.549)" class="st12" cx="117.5" cy="55.5" rx="1.9" ry="18.2"/>
<ellipse transform="matrix(0.1863 -0.9825 0.9825 0.1863 37.9799 162.6587)" class="st12" cx="117.2" cy="58.4" rx="1.9" ry="18.5"/>
<path class="st14" d="M103,56.9c0.1,0.1,0.1,0.1,0.1,0.2c0.3,0.5,0.4,0.9,0.4,1.5c0,0.2-0.1,0.5-0.2,0.7c0,0.2-0.1,0.4-0.1,0.6
	c0,0.1,0,0.1-0.1,0.1c-0.1,0-0.3,0-0.4,0.1c-0.1,0.1-0.1,0.2-0.1,0.3c0,0.1,0.1,0.2,0.2,0.2c0.1,0,0.1,0,0.1,0
	c0.4-0.3,0.7-0.7,0.9-1.1c0.2-0.4,0.3-0.7,0.4-1.1c0.1-0.2,0.1-0.4,0.2-0.6c0-0.1,0.1-0.3,0.2-0.4c0.1-0.1,0.2-0.2,0.3-0.3
	c0.1,0.1,0.1,0.3,0.1,0.4c0,0.1-0.1,0.3-0.1,0.4c0,0.1-0.1,0.3-0.2,0.4c-0.1,0.3-0.3,0.7-0.4,1c-0.2,0.6-0.2,1.1-0.1,1.7
	c0,0.1,0.1,0.1,0.1,0.1c0.2,0,0.4,0,0.4-0.2c0.1-0.2,0-0.3-0.2-0.4c-0.1,0-0.1,0,0-0.1c0.1-0.3,0.3-0.5,0.4-0.8
	c0.1-0.3,0.3-0.6,0.5-0.8c0.3-0.3,0.6-0.5,1.1-0.6c0,0,0.1,0,0.1,0c0,0,0,0.1,0,0.1c-0.5,1.4-1,2.8-1.5,4.2c0,0.1,0,0.1-0.1,0.1
	c-0.3-0.1-0.6-0.2-0.9-0.3c-0.1,0-0.1,0-0.1,0c-0.2,0.4-0.5,0.6-0.9,0.7c-0.1,0-0.2,0.1-0.2,0.1c-0.1-0.2-0.3-0.5-0.3-0.7
	c0-0.2-0.1-0.4,0-0.7c0-0.1,0-0.1-0.1-0.1c-0.3-0.1-0.6-0.2-0.9-0.3c-0.1,0-0.1,0,0-0.1C101.9,59.8,102.4,58.4,103,56.9
	C102.9,57,102.9,57,103,56.9z M103,57.7C103,57.7,103,57.7,103,57.7C103,57.7,103,57.8,103,57.7c-0.3,0.8-0.5,1.4-0.8,2.1
	c0,0.1,0,0.1,0.1,0.2c0,0,0.1,0,0.1,0c0.1-0.1,0.2-0.2,0.4-0.2c0.1,0,0.1,0,0.1-0.1c0.1-0.3,0.1-0.5,0.2-0.8c0.1-0.3,0.1-0.5,0-0.8
	C103.1,57.9,103.1,57.8,103,57.7z M106.1,58.8C106.1,58.8,106.1,58.8,106.1,58.8c-0.1,0-0.1,0-0.1,0.1c-0.2,0.2-0.4,0.3-0.5,0.5
	c-0.2,0.3-0.3,0.6-0.5,0.9c0,0,0,0.1,0,0.1c0.1,0.1,0.1,0.2,0.1,0.4c0,0.1,0,0.1,0.1,0.1c0.1,0,0.1,0,0.1-0.1
	C105.6,60.2,105.8,59.6,106.1,58.8C106.1,58.8,106.1,58.8,106.1,58.8z M102.7,60.9C102.7,60.9,102.7,60.9,102.7,60.9
	c-0.3-0.2-0.4-0.3-0.4-0.6c0,0,0-0.1,0-0.1c0,0-0.1,0-0.1,0c0,0-0.1,0-0.1,0c-0.1,0.3-0.2,0.6-0.3,0.8c0,0,0,0.1,0,0.1
	c0.2,0.1,0.4,0.1,0.6,0.2c0,0,0.1,0,0.1,0C102.6,61.2,102.6,61.1,102.7,60.9z M104.3,61.5c0,0.2-0.1,0.3-0.1,0.4c0,0,0,0.1,0,0.1
	c0.2,0.1,0.4,0.1,0.6,0.2c0.1,0,0.1,0,0.1,0c0.1-0.2,0.2-0.5,0.3-0.7c0-0.1,0-0.1-0.1-0.2c0,0-0.1,0-0.1,0c-0.1,0.2-0.3,0.3-0.6,0.2
	C104.4,61.5,104.3,61.5,104.3,61.5z M103.9,60.2c-0.2,0.2-0.4,0.5-0.7,0.7c0.1,0.1,0.2,0.2,0.3,0.3c0,0,0.1,0,0.1,0
	c0.1,0,0.2-0.1,0.3-0.1c0,0,0.1,0,0-0.1C103.9,60.8,103.9,60.5,103.9,60.2C103.9,60.2,103.9,60.2,103.9,60.2z M102.8,61.8
	c-0.1,0.2,0,0.6,0.1,0.7c0,0,0,0,0,0c0.1-0.2,0.1-0.4,0.2-0.6c0,0,0,0,0-0.1C102.9,61.8,102.8,61.8,102.8,61.8z M103.2,62.6
	c0.2,0,0.5-0.4,0.5-0.5c-0.1,0-0.2-0.1-0.2-0.1c0,0-0.1,0-0.1,0c-0.1,0.2-0.1,0.3-0.2,0.5C103.2,62.5,103.2,62.6,103.2,62.6z
	 M103,61.5c0,0,0.1,0,0.1,0c0,0,0.1,0,0.1,0c0-0.2,0-0.3-0.2-0.4c0,0-0.1,0-0.1,0c-0.1,0.1-0.1,0.2-0.1,0.3c0,0,0,0.1,0,0.1
	C102.9,61.5,102.9,61.5,103,61.5z M103.7,61.8c0,0,0.1,0,0.1,0c0,0,0.1,0,0.1,0c0-0.1,0-0.2,0.1-0.3c0,0,0-0.1-0.1-0.1
	c-0.2,0-0.3,0.1-0.4,0.2c0,0,0,0,0,0.1C103.6,61.7,103.6,61.8,103.7,61.8z"/>
<radialGradient id="SVGID_00000110438695854620519690000018225505680090411153_" cx="-145.4835" cy="591.5768" r="1" gradientTransform="matrix(-6.5908 7.7494 7.0996 6.0382 -5033.6372 -2344.6504)" gradientUnits="userSpaceOnUse">
	<stop  offset="0" style="stop-color:#FFBBBB"/>
	<stop  offset="1" style="stop-color:#FFBBBB;stop-opacity:0"/>
</radialGradient>
<path style="fill:url(#SVGID_00000110438695854620519690000018225505680090411153_);" d="M131.8,92.3c3.9,3.3,4.1,9.5,0.5,13.8
	s-9.8,5-13.7,1.7c-3.9-3.3-4.1-9.5-0.5-13.8S127.9,88.9,131.8,92.3z"/>
<ellipse transform="matrix(0.6491 -0.7607 0.7607 0.6491 -27.1227 187.8004)" class="st16" cx="190" cy="123.3" rx="39.5" ry="54.1"/>
<ellipse transform="matrix(0.6491 -0.7607 0.7607 0.6491 -23.199 188.904)" class="st8" cx="193.1" cy="119.6" rx="34.6" ry="54.1"/>
<path class="st16" d="M180,120.9l33-27l-18.9,36.8C184.1,131.9,180.6,124.7,180,120.9z"/>
<ellipse transform="matrix(0.6491 -0.7607 0.7607 0.6491 3.4695 195.2569)" class="st16" cx="213.4" cy="93.9" rx="9.2" ry="12.6"/>
<ellipse transform="matrix(0.6491 -0.7607 0.7607 0.6491 4.3814 195.5135)" class="st8" cx="214.1" cy="93" rx="8" ry="12.6"/>
<path class="st16" d="M210.8,93.1l9.7-7.9L215,96C212,96.4,211,94.2,210.8,93.1z"/>
<path class="st6" d="M192.9,144c-63.8,20.6-50.6,41.4-36,49.3c4.2,6.8,17.4-2.3,23.5-7.8c0.1-3.3,2.2-11,9.8-15.8
	c7.5-4.8,5.4-6.8,3.3-7.2c10.6-8.9,4.8-8.3,0.5-6.9C227.8,137.4,204.8,139.9,192.9,144z"/>
<path class="st17" d="M195.2,145.2c-64.6,22-50.7,42.7-35.7,50.2c4.4,6.8,17.7-2.7,23.8-8.3c0-3.3,2-11.1,9.6-16.1
	c7.6-4.9,5.3-6.9,3.3-7.3c10.6-9.1,4.7-8.4,0.4-6.9C224.4,137.1,207.2,140.8,195.2,145.2z"/>
</svg>
