<?xml version="1.0" encoding="utf-8"?>
<!-- Generator: Adobe Illustrator 26.0.2, SVG Export Plug-In . SVG Version: 6.00 Build 0)  -->
<svg version="1.1" id="Слой_1" xmlns="http://www.w3.org/2000/svg" xmlns:xlink="http://www.w3.org/1999/xlink" x="0px" y="0px"
	 viewBox="0 0 283.5 283.5" style="enable-background:new 0 0 283.5 283.5;" xml:space="preserve">
<style type="text/css">
	.st0{fill-rule:evenodd;clip-rule:evenodd;fill:url(#SVGID_1_);}
	.st1{fill:#F5F5F5;}
	.st2{fill:url(#SVGID_00000041260096350058396960000013980774782016977581_);}
	.st3{fill:#C4C4C4;}
	.st4{fill:url(#SVGID_00000119089613979116978960000014394748303929808808_);}
	.st5{fill:#FFFFFF;}
	.st6{fill:#DF5B04;}
	.st7{fill:#010101;}
	.st8{fill:#222222;}
	.st9{fill:#8DCCF0;}
	.st10{opacity:0.29;fill:#FFFFFF;enable-background:new    ;}
	.st11{fill:#FF6B0A;}
	.st12{fill:#0C0632;}
	.st13{fill:#494600;}
	.st14{fill:#FFD500;}
	.st15{fill:url(#SVGID_00000070097555815029288870000008030230043672671905_);}
	.st16{fill:url(#SVGID_00000113342903143793440790000000092039464380288936_);}
	.st17{fill:url(#SVGID_00000002372982346210808360000017517370390418965905_);}
</style>
<linearGradient id="SVGID_1_" gradientUnits="userSpaceOnUse" x1="107.4813" y1="28.8424" x2="175.9832" y2="255.4527" gradientTransform="matrix(1 0 0 -1 0 283.3544)">
	<stop  offset="0" style="stop-color:#A5DEFF"/>
	<stop  offset="1" style="stop-color:#BDE7FF"/>
</linearGradient>
<path class="st0" d="M106.3,253.6c-36.5-8.4-75.2-26-87.5-61.4C7,157.9,32.3,124.9,51.2,93.9C69,64.7,87.2,32.8,120.7,25.1
	c35.9-8.2,73.9,4.5,100.7,29.7c26.4,24.8,38.3,61.4,34.3,97.4c-3.8,34.2-25.7,62.5-54.2,81.8C173.3,253.2,139.5,261.2,106.3,253.6z"
	/>
<path class="st1" d="M112,269c-63.5,0-34.1-80.8,31-77.3C192.7,225.2,170.5,269,112,269z"/>
<linearGradient id="SVGID_00000076593003277067476940000002878149047860261293_" gradientUnits="userSpaceOnUse" x1="126.6373" y1="127.1241" x2="171.7924" y2="127.1241" gradientTransform="matrix(1 0 0 -1 0 283.3544)">
	<stop  offset="0" style="stop-color:#F4F4F4"/>
	<stop  offset="1" style="stop-color:#FFFFFF"/>
</linearGradient>
<path style="fill:url(#SVGID_00000076593003277067476940000002878149047860261293_);" d="M129.3,121.6c-7.7-18.5,3.2-25.6,9.6-26.9
	c4.8,3.2,21.9,9.6,13.5,9.6c-8.5,0-6.1,11.5-3.8,17.3c41.5,56.2,17.3,87.5,4.8,96.2c-14.4-5.8-38.5-19-19.2-26
	C158.1,183.2,138.9,144.7,129.3,121.6z"/>
<path class="st3" d="M208.5,126.1c30.6,118.1-2.9,139.4-28.2,117.3c-14-4.6-7.8,0.9-5.6-11.7c4.7-1.5-0.9-76-1.1-90.8
	c-0.2-14.9,4.8-11.9,7.3-8.5c2.9-21.6,7.5-11.4,9.5-3.6C192.1,73.6,203.2,104,208.5,126.1z"/>
<linearGradient id="SVGID_00000151504613812483623820000009504536854872009122_" gradientUnits="userSpaceOnUse" x1="212.2552" y1="48.5053" x2="169.7152" y2="145.8573" gradientTransform="matrix(1 0 0 -1 0 283.3544)">
	<stop  offset="0" style="stop-color:#F4F4F4"/>
	<stop  offset="1" style="stop-color:#FFFFFF"/>
</linearGradient>
<path style="fill:url(#SVGID_00000151504613812483623820000009504536854872009122_);" d="M207.3,126.9
	c30.6,118.1-2.9,139.4-28.2,117.3c-14-4.6-7.8,0.9-5.6-11.7c4.7-1.5-0.9-76-1.1-90.8c-0.2-14.9,4.8-11.9,7.3-8.5
	c2.9-21.6,7.5-11.4,9.5-3.6C190.8,74.3,202,104.8,207.3,126.9z"/>
<path class="st5" d="M182,131.5c-27.3,15-39.9,6.3-42.8,0c-19.9-11.8-15.3-52.2,18.8-52.2C192.1,79.2,216.1,112.7,182,131.5z"/>
<path class="st6" d="M164.5,123.1l2.5-2.4c5.4-5.3,13.2-8.9,22.2-10.3c0.6-0.1,1.3,0.1,1.7,0.5l22.2,21.2c1.4,1.3,0.1,3-1.9,2.6
	l-45.2-8.9C164.4,125.4,163.6,124,164.5,123.1z"/>
<rect x="194.5" y="94.5" class="st7" width="15" height="22"/>
<circle class="st7" cx="194.5" cy="105.5" r="11"/>
<circle class="st8" cx="209.5" cy="105.5" r="11"/>
<circle class="st9" cx="209.5" cy="105.5" r="8"/>
<ellipse class="st10" cx="209.5" cy="105.5" rx="7" ry="7"/>
<ellipse transform="matrix(0.7071 -0.7071 0.7071 0.7071 -10.7 179.9785)" class="st5" cx="211.9" cy="102.9" rx="2.5" ry="3.8"/>
<path class="st11" d="M163.8,123l1.7-1.6c5.9-5.6,14.2-9.5,23.9-11.1c0.4-0.1,0.9,0,1.3,0.2l32.7,14c2.1,0.9,1.7,3.2-0.6,3.2
	l-57-1.9C164,125.7,162.8,124,163.8,123z"/>
<rect x="166.5" y="95.5" class="st7" width="15" height="22"/>
<circle class="st7" cx="166.5" cy="106.5" r="11"/>
<circle class="st8" cx="181.5" cy="106.5" r="11"/>
<circle class="st9" cx="181.5" cy="106.5" r="8"/>
<ellipse class="st10" cx="181.5" cy="106.5" rx="7" ry="7"/>
<ellipse transform="matrix(0.7071 -0.7071 0.7071 0.7071 -19.6081 160.4724)" class="st5" cx="183.9" cy="103.9" rx="2.5" ry="3.8"/>
<path class="st12" d="M183.4,59.4l-0.8-4.2l-50,9.5l4.3,22.7l1.8-0.3l41.7-5.3l6.5-3.9l-3-15.8l0.2,0l0-2.7L183.4,59.4z"/>
<ellipse transform="matrix(0.9825 -0.1863 0.1863 0.9825 -9.1988 30.6306)" class="st12" cx="158.4" cy="64.3" rx="26.2" ry="2.6"/>
<path class="st12" d="M187.5,77.9c17,1,33.2,23-37.9,11.4L187.5,77.9z"/>
<path class="st13" d="M187.6,77.7c-2.7,7.9-45.7,15.6-51.5,9.8l-3.4-18.3c7.6,1,21.1-5.8,32.8-3.8l14.9,13.3l3.7-19.2L187.6,77.7z"
	/>
<ellipse transform="matrix(0.9825 -0.1863 0.1863 0.9825 -8.4658 30.4209)" class="st12" cx="157.6" cy="60.3" rx="25.5" ry="2.6"/>
<ellipse transform="matrix(0.9825 -0.1863 0.1863 0.9825 -9.2185 30.5627)" class="st12" cx="158" cy="64.3" rx="25.8" ry="2.6"/>
<path class="st14" d="M177.9,62.3c-0.1,0.1-0.1,0.2-0.2,0.3c-0.4,0.7-0.6,1.3-0.5,2.1c0.1,0.3,0.1,0.7,0.2,1
	c0.1,0.3,0.1,0.6,0.2,0.9c0,0.1,0,0.1,0.1,0.1c0.2,0,0.4,0,0.5,0.1c0.1,0.1,0.1,0.3,0.1,0.4c0,0.2-0.2,0.3-0.3,0.3
	c-0.1,0-0.1,0-0.2,0c-0.5-0.4-0.9-0.9-1.2-1.5c-0.2-0.5-0.4-1-0.6-1.5c-0.1-0.3-0.2-0.6-0.3-0.9c-0.1-0.2-0.1-0.4-0.2-0.5
	c-0.1-0.2-0.2-0.3-0.4-0.4c-0.1,0.2-0.1,0.4-0.1,0.6c0,0.2,0.1,0.4,0.1,0.5c0.1,0.2,0.1,0.4,0.2,0.5c0.2,0.5,0.4,0.9,0.5,1.4
	c0.3,0.8,0.3,1.6,0.2,2.4c0,0.1-0.1,0.2-0.2,0.2c-0.3,0.1-0.5-0.1-0.6-0.3c-0.1-0.2,0-0.5,0.3-0.6c0.1,0,0.1-0.1,0-0.1
	c-0.2-0.4-0.4-0.7-0.5-1.1c-0.2-0.4-0.4-0.8-0.7-1.2c-0.4-0.4-0.9-0.7-1.5-0.8c0,0-0.1,0-0.1,0c0,0,0,0.1,0,0.1
	c0.7,2,1.4,3.9,2.1,5.8c0,0.1,0,0.1,0.1,0.1c0.4-0.1,0.8-0.3,1.2-0.4c0.1,0,0.1,0,0.2,0c0.3,0.5,0.7,0.8,1.3,1
	c0.1,0,0.2,0.1,0.3,0.2c0.1-0.3,0.4-0.6,0.5-1c0.1-0.3,0.1-0.6,0-0.9c0-0.1,0-0.1,0.1-0.1c0.4-0.1,0.8-0.3,1.2-0.4
	c0.1,0,0.1-0.1,0.1-0.1C179.3,66.3,178.6,64.4,177.9,62.3C177.9,62.4,177.9,62.4,177.9,62.3z M177.7,63.4
	C177.8,63.4,177.8,63.4,177.7,63.4c0.1,0,0.1,0.1,0.1,0.1c0.3,1,0.7,1.8,1,2.8c0.1,0.2,0.1,0.2-0.1,0.2c-0.1,0-0.1,0-0.1,0
	c-0.1-0.2-0.3-0.3-0.5-0.3c-0.1,0-0.1-0.1-0.1-0.1c-0.1-0.4-0.2-0.7-0.3-1.1c-0.1-0.4-0.1-0.7,0-1.1
	C177.7,63.7,177.7,63.5,177.7,63.4z M173.5,64.9C173.5,64.9,173.5,64.9,173.5,64.9c0.1,0,0.1,0,0.2,0.1c0.3,0.2,0.6,0.4,0.7,0.8
	c0.2,0.4,0.4,0.9,0.7,1.3c0,0.1,0,0.1,0,0.2c-0.1,0.2-0.2,0.3-0.2,0.6c0,0.1,0,0.1-0.2,0.2c-0.1,0-0.1-0.1-0.1-0.1
	C174.2,66.8,173.9,66,173.5,64.9C173.5,65,173.5,64.9,173.5,64.9z M178.2,67.8C178.2,67.8,178.3,67.8,178.2,67.8
	c0.4-0.2,0.6-0.5,0.6-0.9c0-0.1,0-0.1,0.1-0.1c0,0,0.1,0,0.1,0c0.1,0,0.1,0,0.1,0c0.1,0.4,0.3,0.8,0.4,1.2c0,0,0,0.1,0,0.1
	c-0.3,0.1-0.6,0.2-0.8,0.3c0,0-0.1,0-0.1,0C178.4,68.2,178.3,68,178.2,67.8z M176,68.6c0.1,0.2,0.1,0.4,0.1,0.6c0,0.1,0,0.1-0.1,0.1
	c-0.3,0.1-0.5,0.2-0.8,0.3c-0.1,0-0.1,0-0.1-0.1c-0.1-0.3-0.2-0.7-0.4-1c-0.1-0.2-0.1-0.2,0.1-0.2c0,0,0.1,0,0.1,0
	c0.2,0.3,0.5,0.4,0.8,0.3C175.9,68.6,176,68.6,176,68.6z M176.6,66.8c0.3,0.3,0.6,0.7,0.9,0.9c-0.1,0.2-0.2,0.3-0.4,0.5
	c0,0-0.1,0-0.1,0c-0.2,0-0.3-0.1-0.5-0.1c-0.1,0-0.1,0-0.1-0.1C176.6,67.7,176.6,67.3,176.6,66.8C176.6,66.9,176.6,66.8,176.6,66.8z
	 M178.1,69c0.1,0.3,0,0.9-0.1,1c0,0,0,0,0,0c-0.1-0.3-0.2-0.5-0.3-0.8c0,0,0-0.1,0-0.1C177.9,69.1,178,69.1,178.1,69z M177.6,70.2
	c-0.3,0-0.7-0.5-0.8-0.7c0.1,0,0.2-0.1,0.3-0.1c0.1,0,0.1,0,0.1,0.1c0.1,0.2,0.2,0.4,0.2,0.6C177.6,70.1,177.6,70.2,177.6,70.2z
	 M177.8,68.7c-0.1,0-0.1,0.1-0.2,0.1c0,0-0.1,0-0.1,0c-0.1-0.2,0-0.5,0.2-0.6c0,0,0.1,0,0.1,0c0.1,0.1,0.1,0.3,0.2,0.4
	c0,0,0,0.1,0,0.1C177.9,68.7,177.9,68.7,177.8,68.7z M176.9,69c-0.1,0-0.1,0-0.2,0.1c-0.1,0-0.1,0-0.1-0.1c0-0.1-0.1-0.3-0.1-0.4
	c0-0.1,0-0.1,0.1-0.1c0.2,0,0.5,0.1,0.5,0.3c0,0,0,0.1,0,0.1C177,69,176.9,69,176.9,69z"/>
<radialGradient id="SVGID_00000153696764587246924320000017483505024543703992_" cx="-137.693" cy="567.8353" r="0" gradientTransform="matrix(9.198 10.8149 -9.9082 8.4269 7038.8501 -3154.3091)" gradientUnits="userSpaceOnUse">
	<stop  offset="0" style="stop-color:#FFBBBB"/>
	<stop  offset="1" style="stop-color:#FFBBBB;stop-opacity:0"/>
</radialGradient>
<path style="fill:url(#SVGID_00000153696764587246924320000017483505024543703992_);" d="M137.6,111.6c-5.5,4.7-5.8,13.3-0.7,19.2
	c5.1,6,13.6,7,19.1,2.4s5.8-13.3,0.7-19.2C151.7,108,143.1,106.9,137.6,111.6z"/>
<path class="st3" d="M183.7,131.7c30.6,118.1-2.9,139.4-28.2,117.3c-14-4.6-7.8,0.9-5.6-11.7c4.7-1.5-0.9-76-1.1-90.8
	c-0.2-14.9,4.8-11.9,7.3-8.5c2.9-21.6,7.5-11.4,9.5-3.6C167.3,79.1,178.4,109.6,183.7,131.7z"/>
<linearGradient id="SVGID_00000044862289248500717300000008128160415339961243_" gradientUnits="userSpaceOnUse" x1="194.0152" y1="102.5867" x2="144.6557" y2="102.4567" gradientTransform="matrix(1 0 0 -1 0 283.3544)">
	<stop  offset="0" style="stop-color:#F4F4F4"/>
	<stop  offset="1" style="stop-color:#FFFFFF"/>
</linearGradient>
<path style="fill:url(#SVGID_00000044862289248500717300000008128160415339961243_);" d="M181.9,132.6
	c30.6,118.1-2.9,139.4-28.2,117.3c-14-4.6-7.8,0.9-5.6-11.7c4.7-1.5-0.9-76-1.1-90.8c-0.2-14.9,4.8-11.9,7.3-8.5
	c2.9-21.6,7.5-11.4,9.5-3.6C165.5,80,176.6,110.5,181.9,132.6z"/>
<linearGradient id="SVGID_00000114793176214942892780000011341060293869607569_" gradientUnits="userSpaceOnUse" x1="153.9508" y1="65.5811" x2="153.9508" y2="5.5811" gradientTransform="matrix(1 0 0 -1 0 283.3544)">
	<stop  offset="0" style="stop-color:#FAFAFA;stop-opacity:0"/>
	<stop  offset="1" style="stop-color:#FFFFFF"/>
</linearGradient>
<rect x="43.5" y="217.8" style="fill:url(#SVGID_00000114793176214942892780000011341060293869607569_);" width="221" height="60"/>
</svg>
