<?xml version="1.0" encoding="utf-8"?>
<!-- Generator: Adobe Illustrator 26.0.2, SVG Export Plug-In . SVG Version: 6.00 Build 0)  -->
<svg version="1.1" id="Слой_1" xmlns="http://www.w3.org/2000/svg" xmlns:xlink="http://www.w3.org/1999/xlink" x="0px" y="0px"
	 viewBox="0 0 322 283.5" style="enable-background:new 0 0 322 283.5;" xml:space="preserve">
<style type="text/css">
	.st0{fill-rule:evenodd;clip-rule:evenodd;fill:url(#SVGID_1_);}
	.st1{fill:#D9D9D9;}
	.st2{fill:url(#SVGID_00000143593984577324622710000002180320035027648673_);}
	.st3{fill:none;stroke:#FF6B0A;stroke-width:3;stroke-linecap:round;stroke-miterlimit:4;}
	.st4{fill:none;stroke:#FF6B0A;stroke-width:3;stroke-linecap:round;}
	.st5{fill:url(#SVGID_00000075883671929503289470000014897510731771217282_);}
	.st6{fill:url(#SVGID_00000175311261258070747870000010261283736569809818_);}
	.st7{fill:#FFFFFF;}
	.st8{fill:url(#SVGID_00000074419935282526668350000009057212411084760728_);}
	.st9{fill:#DF5B04;}
	.st10{fill:#FF6B0A;}
	.st11{fill:#797979;}
	.st12{fill:#0C0632;}
	.st13{fill:#494600;}
	.st14{fill:#FFD500;}
	.st15{fill:url(#SVGID_00000158719029024093196920000015419968695097912991_);}
</style>
<linearGradient id="SVGID_1_" gradientUnits="userSpaceOnUse" x1="272.3807" y1="99.4599" x2="52.9269" y2="179.7841" gradientTransform="matrix(1 0 0 -1 0 283.3544)">
	<stop  offset="0" style="stop-color:#A5DEFF"/>
	<stop  offset="1" style="stop-color:#BDE7FF"/>
</linearGradient>
<path class="st0" d="M271.4,185c-10.3,35.5-29.9,72.7-65.5,82.7c-34.5,9.7-65.5-17.1-95-37.4c-27.8-19.2-58.2-39-63.9-72.4
	c-6.1-35.8,8.6-72.6,35-97.5c26-24.6,62.7-34.3,97.9-28.3c33.5,5.7,60.1,28.9,77.5,58.1C274.8,119,280.8,152.7,271.4,185z"/>
<path class="st1" d="M278.1,162c-155.4-18.1-146.4,28.9-122.4,54.7c2.7,15.3,39.4,10.6,57.4,6.4c3.3-5.6,14.9-17.1,35.4-19
	c20.5-1.9,17.7-7.1,13.7-9.5c30.7-6.4,17.8-10.3,7.5-11.4C358.8,179.9,307.3,164.9,278.1,162z"/>
<linearGradient id="SVGID_00000073686381892568775380000003837592024574898567_" gradientUnits="userSpaceOnUse" x1="229.1416" y1="125.3588" x2="236.7487" y2="57.9607" gradientTransform="matrix(1 0 0 -1 0 283.3544)">
	<stop  offset="0" style="stop-color:#FFFFFF"/>
	<stop  offset="1" style="stop-color:#F5F5F5"/>
</linearGradient>
<path style="fill:url(#SVGID_00000073686381892568775380000003837592024574898567_);" d="M282,163.8
	c-158.5-16.3-147.8,30.9-122.6,56.6c3.2,15.4,40.4,10.2,58.5,5.7c3.1-5.6,14.6-17.4,35.4-19.6c20.8-2.2,17.7-7.4,13.6-9.8
	c31-6.8,17.8-10.6,7.3-11.6C351.8,174.3,311.7,166.4,282,163.8z"/>
<line class="st3" x1="139.6" y1="237.7" x2="113.3" y2="247.5"/>
<path class="st4" d="M101.1,253.5l11.5-6.7"/>
<path class="st4" d="M103.8,246.8l8.8-0.6"/>
<path class="st4" d="M105.3,257.8l8.4-10.9"/>
<path class="st1" d="M46.7,137.4c156.2,9.7,138.9,54.4,110.8,75.5c-5.4,14.6-40.7,3.5-57.6-3.9c-2.2-6-11.6-19.5-31.5-25
	c-19.9-5.5-16.2-10.2-11.8-11.8c-29.1-11.7-15.7-13.2-5.4-12.5C-35.9,140.7,17.5,135.1,46.7,137.4z"/>
<linearGradient id="SVGID_00000121986195705307735270000002209357650020397453_" gradientUnits="userSpaceOnUse" x1="95.2175" y1="139.1851" x2="75.7956" y2="74.1993" gradientTransform="matrix(1 0 0 -1 0 283.3544)">
	<stop  offset="0" style="stop-color:#FFFFFF"/>
	<stop  offset="1" style="stop-color:#F9F9F9"/>
</linearGradient>
<path style="fill:url(#SVGID_00000121986195705307735270000002209357650020397453_);" d="M42.2,140.5c158.9,12,140,56.6,110.6,77.4
	c-5.9,14.6-41.5,2.9-58.6-4.7c-2.1-6.1-11.3-19.8-31.3-25.6c-20.1-5.8-16.2-10.4-11.7-12c-29.3-12.2-15.6-13.5-5.1-12.7
	C-28.4,138.5,12.4,137.8,42.2,140.5z"/>
<linearGradient id="SVGID_00000033356631408734094610000011781831406097595800_" gradientUnits="userSpaceOnUse" x1="161.1073" y1="97.7345" x2="85.8744" y2="46.6065" gradientTransform="matrix(1 0 0 -1 0 283.3544)">
	<stop  offset="0" style="stop-color:#FFFFFF"/>
	<stop  offset="1" style="stop-color:#F5F5F5"/>
</linearGradient>
<path style="fill:url(#SVGID_00000033356631408734094610000011781831406097595800_);" d="M209.3,195.8c-6.7,31.3-51.9,78.8-179,18
	C91.3,187.8,212.4,147.8,209.3,195.8z"/>
<path class="st7" d="M158.3,113.7c-6-14.5,2.5-20.2,7.6-21.2c3.8,2.5,17.2,7.6,10.6,7.6c-6.7,0-4.8,9.1-3,13.6
	c32.6,44.1,13.6,68.8,3.8,75.6c-11.3-4.5-30.2-15-15.1-20.4C180.9,162.1,165.8,131.9,158.3,113.7z"/>
<radialGradient id="SVGID_00000143613507172319523770000001811705107395700876_" cx="-136.9387" cy="586.1133" r="1" gradientTransform="matrix(-40.3727 11.3579 2.9309 10.4181 -7094.9062 -4325.3564)" gradientUnits="userSpaceOnUse">
	<stop  offset="0" style="stop-color:#E8E8E8"/>
	<stop  offset="1" style="stop-color:#EFEFEF;stop-opacity:0.5"/>
</radialGradient>
<path style="fill:url(#SVGID_00000143613507172319523770000001811705107395700876_);" d="M191.9,214.1c1.6,5.8-15.1,15.5-37.4,21.8
	s-41.7,6.7-43.3,0.9c-1.6-5.8,15.1-15.5,37.4-21.8S190.3,208.4,191.9,214.1z"/>
<line class="st3" x1="124.1" y1="235.7" x2="96.7" y2="241.5"/>
<path class="st4" d="M84,246.9l12.2-5.3"/>
<path class="st4" d="M87.5,240.6l8.8,0.5"/>
<path class="st4" d="M87.6,251.7l9.6-9.8"/>
<path class="st7" d="M199.7,121.5c-21.4,11.8-31.4,4.9-33.7,0c-15.6-9.3-12-41.1,14.8-41.1C207.6,80.4,226.5,106.7,199.7,121.5z"/>
<path class="st9" d="M185,112.8l3.4-2.2c6.1-3.9,13.5-5.4,20.7-4.2c0.4,0.1,0.7,0.4,0.8,0.8l7.1,28.6c0.5,1.8-1.7,3.2-3.2,2.1
	l-28.9-22.7C184.1,114.5,184.2,113.4,185,112.8z"/>
<path class="st10" d="M184.4,112.7l2.8-1.7c6.6-4.1,14.4-5.7,22.1-4.4c0.3,0,0.6,0.2,0.7,0.5l17.7,24.3c1.2,1.7-0.6,3.9-2.5,3
	l-40.7-19C183.5,114.7,183.4,113.3,184.4,112.7z"/>
<circle class="st11" cx="209.1" cy="99.2" r="2.8"/>
<circle class="st11" cx="180.8" cy="102" r="2.8"/>
<path class="st12" d="M200.8,64.8l-0.6-3.3L160.8,69l3.4,17.8l1.4-0.3l32.8-4.1l5.1-3.1L201.2,67l0.2,0l0-2.1L200.8,64.8z"/>
<ellipse transform="matrix(0.9825 -0.1863 0.1863 0.9825 -9.6215 34.9454)" class="st12" cx="181.1" cy="68.7" rx="20.6" ry="2"/>
<path class="st12" d="M204,79.3c13.4,0.8,26.1,18.1-29.8,9L204,79.3z"/>
<path class="st13" d="M204.1,79.2c-2.1,6.2-35.9,12.3-40.5,7.7l-2.7-14.3c6,0.8,16.6-4.6,25.7-3l11.7,10.4l2.9-15.1L204.1,79.2z"/>
<ellipse transform="matrix(0.9825 -0.1863 0.1863 0.9825 -9.0453 34.7806)" class="st12" cx="180.5" cy="65.5" rx="20" ry="2"/>
<ellipse transform="matrix(0.9825 -0.1863 0.1863 0.9825 -9.6368 34.892)" class="st12" cx="180.8" cy="68.7" rx="20.3" ry="2"/>
<path class="st14" d="M196.4,67.1c-0.1,0.1-0.1,0.1-0.2,0.2c-0.3,0.5-0.5,1-0.4,1.6c0,0.3,0.1,0.5,0.2,0.8c0.1,0.2,0.1,0.4,0.2,0.7
	c0,0.1,0,0.1,0.1,0.1c0.1,0,0.3,0,0.4,0.1c0.1,0.1,0.1,0.2,0.1,0.3c0,0.1-0.1,0.2-0.2,0.3c-0.1,0-0.1,0-0.2,0
	c-0.4-0.3-0.7-0.7-1-1.2c-0.2-0.4-0.3-0.8-0.4-1.2c-0.1-0.2-0.2-0.5-0.2-0.7c0-0.1-0.1-0.3-0.2-0.4c-0.1-0.1-0.2-0.2-0.3-0.3
	c-0.1,0.1-0.1,0.3-0.1,0.4c0,0.1,0.1,0.3,0.1,0.4c0,0.1,0.1,0.3,0.2,0.4c0.1,0.4,0.3,0.7,0.4,1.1c0.2,0.6,0.3,1.3,0.1,1.9
	c0,0.1-0.1,0.1-0.1,0.1c-0.2,0.1-0.4,0-0.5-0.2c-0.1-0.2,0-0.4,0.2-0.4c0.1,0,0.1-0.1,0-0.1c-0.1-0.3-0.3-0.6-0.4-0.8
	c-0.2-0.3-0.3-0.6-0.5-0.9c-0.3-0.3-0.7-0.5-1.2-0.6c0,0-0.1,0-0.1,0c0,0,0,0.1,0,0.1c0.6,1.5,1.1,3,1.6,4.6c0,0.1,0,0.1,0.1,0.1
	c0.3-0.1,0.6-0.2,1-0.3c0.1,0,0.1,0,0.1,0c0.2,0.4,0.6,0.7,1,0.8c0.1,0,0.2,0.1,0.3,0.1c0.1-0.3,0.3-0.5,0.4-0.8
	c0.1-0.2,0.1-0.5,0-0.7c0-0.1,0-0.1,0.1-0.1c0.3-0.1,0.6-0.2,1-0.3c0.1,0,0.1,0,0.1-0.1C197.5,70.2,197,68.8,196.4,67.1
	C196.5,67.2,196.4,67.2,196.4,67.1z M196.3,68C196.3,68,196.4,68,196.3,68C196.4,68,196.4,68,196.3,68c0.3,0.8,0.6,1.5,0.8,2.3
	c0,0.1,0,0.1-0.1,0.2c0,0-0.1,0-0.1,0c-0.1-0.1-0.2-0.2-0.4-0.2c-0.1,0-0.1,0-0.1-0.1c-0.1-0.3-0.1-0.6-0.2-0.9
	c-0.1-0.3-0.1-0.5,0-0.8C196.3,68.2,196.3,68.1,196.3,68z M193,69.2C193,69.2,193,69.2,193,69.2c0.1,0,0.1,0,0.1,0.1
	c0.2,0.2,0.4,0.3,0.6,0.6c0.2,0.3,0.3,0.7,0.5,1c0,0,0,0.1,0,0.1c-0.1,0.1-0.2,0.3-0.2,0.4c0,0.1,0,0.1-0.1,0.1
	c-0.1,0-0.1,0-0.1-0.1C193.6,70.7,193.3,70,193,69.2C193,69.2,193,69.2,193,69.2z M196.7,71.5C196.7,71.5,196.7,71.4,196.7,71.5
	c0.3-0.2,0.5-0.4,0.4-0.7c0,0,0-0.1,0-0.1c0,0,0.1,0,0.1,0c0,0,0.1,0,0.1,0c0.1,0.3,0.2,0.6,0.3,0.9c0,0,0,0.1,0,0.1
	c-0.2,0.1-0.4,0.2-0.7,0.2c0,0-0.1,0-0.1,0C196.9,71.8,196.8,71.6,196.7,71.5z M195,72.1c0,0.2,0.1,0.3,0.1,0.5c0,0,0,0.1-0.1,0.1
	c-0.2,0.1-0.4,0.1-0.6,0.2c-0.1,0-0.1,0-0.1-0.1c-0.1-0.3-0.2-0.5-0.3-0.8c0-0.1,0-0.1,0.1-0.2c0,0,0.1,0,0.1,0
	c0.2,0.2,0.4,0.3,0.6,0.3C194.9,72.1,194.9,72.1,195,72.1z M195.4,70.7c0.2,0.3,0.4,0.5,0.7,0.7c-0.1,0.1-0.2,0.3-0.3,0.4
	c0,0-0.1,0-0.1,0c-0.1,0-0.2-0.1-0.4-0.1c0,0-0.1,0,0-0.1C195.4,71.3,195.4,71,195.4,70.7C195.4,70.7,195.4,70.7,195.4,70.7z
	 M196.6,72.4c0.1,0.2,0,0.7-0.1,0.8c0,0,0,0,0,0c-0.1-0.2-0.2-0.4-0.2-0.6c0,0,0-0.1,0-0.1C196.4,72.5,196.5,72.5,196.6,72.4z
	 M196.2,73.3c-0.2,0-0.6-0.4-0.6-0.6c0.1,0,0.2-0.1,0.3-0.1c0.1,0,0.1,0,0.1,0c0.1,0.2,0.1,0.3,0.2,0.5
	C196.2,73.3,196.2,73.3,196.2,73.3z M196.4,72.2c-0.1,0-0.1,0-0.2,0.1c0,0-0.1,0-0.1,0c0-0.2,0-0.4,0.2-0.5c0,0,0.1,0,0.1,0
	c0.1,0.1,0.1,0.2,0.2,0.3c0,0,0,0.1,0,0.1C196.5,72.1,196.4,72.1,196.4,72.2z M195.7,72.4c0,0-0.1,0-0.1,0.1c0,0-0.1,0-0.1,0
	c0-0.1,0-0.2-0.1-0.3c0-0.1,0-0.1,0.1-0.1c0.2,0,0.4,0.1,0.4,0.3c0,0,0,0.1,0,0.1C195.8,72.4,195.7,72.4,195.7,72.4z"/>
<radialGradient id="SVGID_00000098943098600592757150000004829598278312981381_" cx="-114.8047" cy="568.4792" r="1" gradientTransform="matrix(7.2285 8.4992 -7.7866 6.6224 5428.4136 -2674.6245)" gradientUnits="userSpaceOnUse">
	<stop  offset="0" style="stop-color:#FFBBBB"/>
	<stop  offset="1" style="stop-color:#FFBBBB;stop-opacity:0"/>
</radialGradient>
<path style="fill:url(#SVGID_00000098943098600592757150000004829598278312981381_);" d="M164.8,105.8c-4.3,3.7-4.6,10.4-0.6,15.1
	c4,4.7,10.7,5.5,15,1.9c4.3-3.7,4.6-10.4,0.6-15.1C175.8,103,169.1,102.2,164.8,105.8z"/>
</svg>
